<svg width="161" height="32" viewBox="0 0 161 32" fill="none" xmlns="http://www.w3.org/2000/svg"><path d="M15.2156 2.92705c.2993-.92131 1.6027-.92131 1.9021 0l2.4166 7.43765c.1339.4121.5179.691.9511.691h7.8204c.9688 0 1.3715 1.2396.5878 1.809l-6.3269 4.5968c-.3504.2546-.4971.706-.3632 1.118l2.4166 7.4377c.2994.9213-.7551 1.6875-1.5388 1.1181l-6.3269-4.5968c-.3505-.2546-.8251-.2546-1.1756 0l-6.32684 4.5968c-.78372.5694-1.83819-.1968-1.53884-1.1181l2.41668-7.4377c.1338-.412-.0128-.8634-.3633-1.118l-6.32688-4.5968c-.78372-.5694-.38094-1.809.58779-1.809h7.82049c.4332 0 .8171-.2789.951-.691l2.4167-7.43765zM47.2156 2.92705c.2993-.92131 1.6027-.92131 1.9021 0l2.4166 7.43765c.1339.4121.5179.691.9511.691h7.8204c.9688 0 1.3715 1.2396.5878 1.809l-6.3269 4.5968c-.3504.2546-.4971.706-.3632 1.118l2.4166 7.4377c.2994.9213-.7551 1.6875-1.5388 1.1181l-6.3269-4.5968c-.3505-.2546-.8251-.2546-1.1756 0l-6.3268 4.5968c-.7838.5694-1.8382-.1968-1.5389-1.1181l2.4167-7.4377c.1338-.412-.0128-.8634-.3633-1.118l-6.3269-4.5968c-.7837-.5694-.3809-1.809.5878-1.809h7.8205c.4332 0 .8171-.2789.951-.691l2.4167-7.43765zM79.2156 2.92705c.2993-.92131 1.6027-.92131 1.9021 0l2.4166 7.43765c.1339.4121.5179.691.9511.691h7.8204c.9688 0 1.3715 1.2396.5878 1.809l-6.3269 4.5968c-.3504.2546-.4971.706-.3632 1.118l2.4166 7.4377c.2994.9213-.7551 1.6875-1.5388 1.1181l-6.3269-4.5968c-.3505-.2546-.8251-.2546-1.1756 0l-6.3268 4.5968c-.7838.5694-1.8382-.1968-1.5389-1.1181l2.4167-7.4377c.1338-.412-.0128-.8634-.3633-1.118l-6.3269-4.5968c-.7837-.5694-.3809-1.809.5878-1.809h7.8205c.4332 0 .8171-.2789.951-.691l2.4167-7.43765zM111.216 2.92705c.299-.92131 1.602-.92131 1.902 0l2.416 7.43765c.134.4121.518.691.951.691h7.821c.969 0 1.371 1.2396.588 1.809l-6.327 4.5968c-.351.2546-.497.706-.364 1.118l2.417 7.4377c.299.9213-.755 1.6875-1.539 1.1181l-6.327-4.5968c-.35-.2546-.825-.2546-1.175 0l-6.327 4.5968c-.784.5694-1.838-.1968-1.539-1.1181l2.417-7.4377c.134-.412-.013-.8634-.363-1.118l-6.3274-4.5968c-.7837-.5694-.3809-1.809.5874-1.809h7.821c.433 0 .817-.2789.951-.691l2.417-7.43765z" fill="#E9B550"/><mask id="a" style="mask-type:alpha" maskUnits="userSpaceOnUse" x="131" y="2" width="27" height="26"><path d="M143.216 2.92705c.299-.92131 1.602-.92131 1.902 0l2.416 7.43765c.134.4121.518.691.951.691h7.821c.969 0 1.371 1.2396.588 1.809l-6.327 4.5968c-.351.2546-.497.706-.364 1.118l2.417 7.4377c.299.9213-.755 1.6875-1.539 1.1181l-6.327-4.5968c-.35-.2546-.825-.2546-1.175 0l-6.327 4.5968c-.784.5694-1.838-.1968-1.539-1.1181l2.417-7.4377c.134-.412-.013-.8634-.363-1.118l-6.327-4.5968c-.784-.5694-.381-1.809.587-1.809h7.821c.433 0 .817-.2789.951-.691l2.417-7.43765z" fill="#E9B550"/></mask><g mask="url(#a)"><path fill="#BABABC" d="M146.167 0h12v32h-12z"/><path fill="#E9B550" d="M130.167 0h18v32h-18z"/></g></svg>